<svg xmlns="http://www.w3.org/2000/svg" viewBox="0 0 390.7 484.7"><defs/><path fill="#A8A8A8" d="M126.1 415.7l-29.3-18.4 247.5-152.5 33.4 17.2z"/><linearGradient id="a" x1="520.6094" x2="182.8024" y1="133.844" y2="133.844" gradientTransform="matrix(1 0 0 -1 0 482.35)" gradientUnits="userSpaceOnUse"><stop offset=".004" stop-color="#1f1f1f"/><stop offset="1" stop-color="#5f5f5f"/></linearGradient><path fill="url(#a)" d="M143.8 430.9v-7.8l246.7-157v7z"/><path fill="#383838" d="M143.8 430.9v-7.8l246.7-157v7z" opacity=".5"/><linearGradient id="b" x1="499.1534" x2="161.0554" y1="148.778" y2="148.778" gradientTransform="matrix(1 0 0 -1 0 482.35)" gradientUnits="userSpaceOnUse"><stop offset=".004" stop-color="#1f1f1f"/><stop offset="1" stop-color="#5f5f5f"/></linearGradient><path fill="url(#b)" d="M122.1 412.1v-2.7L368.9 255v2.5z"/><linearGradient id="c" x1="474.6654" x2="136.2534" y1="162.9175" y2="162.9175" gradientTransform="matrix(1 0 0 -1 0 482.35)" gradientUnits="userSpaceOnUse"><stop offset=".004" stop-color="#1f1f1f"/><stop offset="1" stop-color="#5f5f5f"/></linearGradient><path fill="url(#c)" d="M97.2 396.4v-2.6l247.1-151.4v2.4z"/><linearGradient id="d" x1="126.8571" x2="97.0871" y1="43.5048" y2="107.348" gradientTransform="matrix(1 0 0 -1 0 482.35)" gradientUnits="userSpaceOnUse"><stop offset="0" stop-color="#424242"/><stop offset=".143" stop-color="#656565"/><stop offset=".391" stop-color="#9d9d9d"/><stop offset=".511" stop-color="#b3b3b3"/><stop offset="1" stop-color="#5b5b5b"/></linearGradient><path fill="url(#d)" stroke="#8C8C8C" stroke-linejoin="round" stroke-width=".5" d="M80 383l17.2 10.8v2.6l4.6 2.9v-2.6l20.3 12.7v2.7l4.5 2.8v-2.7l17.2 10.9v7.8L80 390.6z"/><linearGradient id="e" x1="256.2267" x2="216.7896" y1="100.1549" y2="208.5084" gradientTransform="matrix(1 0 0 -1 0 482.35)" gradientUnits="userSpaceOnUse"><stop offset="0" stop-color="#a8a8a8"/><stop offset=".517" stop-color="#fff"/><stop offset="1" stop-color="#a6a6a6"/></linearGradient><path fill="url(#e)" stroke="#B5B5B5" stroke-linejoin="round" stroke-width=".5" d="M80 383l247.2-149.3 17.1 8.8L97.2 393.8 80 383zm42.1 26.4L368.9 255l-20.1-10.3-247 151.9 20.3 12.8zm21.7 13.7l246.6-157-17.1-8.8-246.7 154.9 17.2 10.9z"/><text fill="#00133F" font-family="'ArialMT'" font-size="18" transform="translate(129.8364 388.862)">+X</text><linearGradient id="f" x1="410.7017" x2="410.7017" y1="81.871" y2="293.8494" gradientTransform="scale(1 -1) rotate(-56.312 -144.53413 87.92415)" gradientUnits="userSpaceOnUse"><stop offset="0" stop-color="#00a3d9"/><stop offset=".043" stop-color="#1faede"/><stop offset=".145" stop-color="#62c6e8"/><stop offset=".243" stop-color="#9adbf0"/><stop offset=".332" stop-color="#c6eaf6"/><stop offset=".411" stop-color="#e5f6fb"/><stop offset=".478" stop-color="#f8fdfe"/><stop offset=".525" stop-color="#fff"/><stop offset=".591" stop-color="#fbfefe"/><stop offset=".652" stop-color="#f0fafd"/><stop offset=".71" stop-color="#def3fa"/><stop offset=".767" stop-color="#c3eaf6"/><stop offset=".823" stop-color="#a2ddf1"/><stop offset=".878" stop-color="#78ceeb"/><stop offset=".933" stop-color="#47bde4"/><stop offset=".986" stop-color="#10a9db"/><stop offset="1" stop-color="#00a3d9"/></linearGradient><path fill="url(#f)" stroke="#00133F" stroke-linejoin="round" stroke-width=".5" d="M328.7 270.7l6.4 3.3 1.7-11-19 2 6.3 3.2L164.4 367l-6.3-3.7-1.5 11.4 18.9-1-6.4-3.9z"/><text fill="#00133F" font-family="'ArialMT'" font-size="18" transform="translate(337.8304 261.904)">-X</text><g><path fill="#B0B0B0" d="M140.9 284.2l36.3-21 174.2 96.9-38.5 26.2z"/><linearGradient id="g" x1="394.6854" x2="306.0534" y1="109.0645" y2="109.0645" gradientTransform="matrix(1 0 0 -1 0 482.35)" gradientUnits="userSpaceOnUse"><stop offset=".004" stop-color="#1f1f1f"/><stop offset="1" stop-color="#5f5f5f"/></linearGradient><path fill="url(#g)" d="M295.8 388.9l13-8.6v3.4l8.3-5.6v-3.3l22.6-15v3.3l7.8-5.2v-3.3l13-8.7v11.4l-64.7 43.3v-11.7"/><linearGradient id="h" x1="247.0585" x2="174.2532" y1="58.9676" y2="215.0974" gradientTransform="matrix(1 0 0 -1 0 482.35)" gradientUnits="userSpaceOnUse"><stop offset="0" stop-color="#707070"/><stop offset=".321" stop-color="#9d9d9d"/><stop offset=".511" stop-color="#b3b3b3"/><stop offset="1" stop-color="#5c5c5c"/></linearGradient><path fill="url(#h)" stroke="#999" stroke-linejoin="round" stroke-width=".5" d="M125.2 290.1v11l170.6 99.5v-11.7l-170.6-98.8"/><path fill="gray" d="M146.6 277.8v3.1l170.5 97.2v-3.3l-170.5-97M177.2 260.1v3.1l170.3 94.7v-3.4l-170.3-94.4"/><linearGradient id="i" x1="232.3315" x2="252.473" y1="104.5928" y2="218.8206" gradientTransform="matrix(1 0 0 -1 0 482.35)" gradientUnits="userSpaceOnUse"><stop offset="0" stop-color="#c7c7c7"/><stop offset=".509" stop-color="#fff"/><stop offset="1" stop-color="#c7c7c7"/></linearGradient><path fill="url(#i)" stroke="#C7C7C7" stroke-linejoin="round" stroke-width=".5" d="M138.2 282.6l170.6 97.7-12.9 8.6-170.6-98.8 12.9-7.5zm8.4-4.8l170.6 97 22.6-15-170.4-95.1-22.8 13.1zm30.6-17.7l170.4 94.5 13-8.6-170.2-93.4-13.2 7.5z"/></g><g><linearGradient id="j" x1="146.4917" x2="101.1747" y1="503.6028" y2="435.3338" gradientTransform="matrix(1 0 0 -1 0 482.35)" gradientUnits="userSpaceOnUse"><stop offset=".001" stop-color="#dbdbdb"/><stop offset=".645" stop-color="#fff"/><stop offset=".821" stop-color="#ededed"/><stop offset="1" stop-color="#e0e0e0"/></linearGradient><path fill="url(#j)" stroke="#B5B5B5" stroke-linejoin="round" stroke-width=".5" d="M70.2 29.9l30.4 14.7 64.7-30.5L134.9.3z"/><path fill="#878787" d="M124.2 282.3l36.4-20.9.3-237.8-39.6 18.7"/><path fill="#E7E7E7" d="M129.4 38.5l4.6 2.1V282l-4.6-2.7z"/><linearGradient id="k" x1="63.0079" x2="149.1829" y1="169.1382" y2="452.0182" gradientTransform="matrix(1 0 0 -1 0 482.35)" gradientUnits="userSpaceOnUse"><stop offset=".004" stop-color="#c2c2c2"/><stop offset=".536" stop-color="#fff"/><stop offset=".605" stop-color="#f5f5f5"/><stop offset=".862" stop-color="#d1d1d1"/><stop offset="1" stop-color="#c4c4c4"/></linearGradient><path fill="url(#k)" stroke="#C7C7C7" stroke-linejoin="round" stroke-width=".5" d="M113.1 50.6l-12.5-6v242.2l12.5 7.2V53.2"/><linearGradient id="l" x1="41.2886" x2="128.2386" y1="178.6569" y2="464.0789" gradientTransform="matrix(1 0 0 -1 0 482.35)" gradientUnits="userSpaceOnUse"><stop offset=".004" stop-color="#b8b8b8"/><stop offset=".536" stop-color="#fff"/><stop offset=".66" stop-color="#e9e9e9"/><stop offset=".881" stop-color="#c5c5c5"/><stop offset="1" stop-color="#b8b8b8"/></linearGradient><path fill="url(#l)" stroke="#B3B3B3" stroke-linejoin="round" stroke-width=".5" d="M56.6 261.1l44.2 26V44.9l-30.6-15V191z"/><linearGradient id="m" x1="226.6974" x2="83.8654" y1="361.4689" y2="297.0049" gradientTransform="matrix(1 0 0 -1 0 482.35)" gradientUnits="userSpaceOnUse"><stop offset=".004" stop-color="#656565"/><stop offset=".491" stop-color="#bbb"/><stop offset=".528" stop-color="#c2c2c2"/><stop offset=".682" stop-color="#a4a4a4"/><stop offset=".889" stop-color="gray"/><stop offset="1" stop-color="#737373"/></linearGradient><path fill="url(#m)" stroke="#8F8F8F" stroke-linejoin="round" stroke-width=".5" d="M113.1 294l12.9-7.4V44.5l-12.9 6.1z"/><linearGradient id="n" x1="224.8743" x2="82.8323" y1="362.3362" y2="298.2292" gradientTransform="matrix(1 0 0 -1 0 482.35)" gradientUnits="userSpaceOnUse"><stop offset=".004" stop-color="#656565"/><stop offset=".491" stop-color="#bbb"/><stop offset=".528" stop-color="#c2c2c2"/><stop offset=".682" stop-color="#a4a4a4"/><stop offset=".889" stop-color="gray"/><stop offset="1" stop-color="#737373"/></linearGradient><path fill="url(#n)" stroke="#8F8F8F" stroke-linejoin="round" stroke-width=".5" d="M134 40.6l24.1-11.4v238.9L134 282z"/><path fill="#E7E7E7" d="M160.9 23.6l4.5 2.1-.1 238.3-4.7-2.6z"/><linearGradient id="o" x1="221.9673" x2="82.7083" y1="363.2071" y2="300.3551" gradientTransform="matrix(1 0 0 -1 0 482.35)" gradientUnits="userSpaceOnUse"><stop offset=".004" stop-color="#656565"/><stop offset=".491" stop-color="#bbb"/><stop offset=".528" stop-color="#c2c2c2"/><stop offset=".682" stop-color="#a4a4a4"/><stop offset=".889" stop-color="gray"/><stop offset="1" stop-color="#737373"/></linearGradient><path fill="url(#o)" stroke="#8F8F8F" stroke-linejoin="round" stroke-width=".5" d="M165.3 25.8l12.5-6v237l-12.5 7.2z"/><linearGradient id="p" x1="166.851" x2="123.206" y1="491.8282" y2="426.0772" gradientTransform="matrix(1 0 0 -1 0 482.35)" gradientUnits="userSpaceOnUse"><stop offset="0" stop-color="#ccc"/><stop offset=".645" stop-color="#fff"/><stop offset=".819" stop-color="#ededed"/><stop offset=".995" stop-color="#e0e0e0"/></linearGradient><path fill="url(#p)" stroke="#C7C7C7" stroke-linejoin="round" stroke-width=".5" d="M177.8 19.8l-12.5-5.7-64.7 30.5 12.5 6 12.9-6.1-4.7-2.2 8.1-3.8 4.6 2.1 24.1-11.4-4.6-2.1 7.4-3.5 4.4 2.2 12.5-6"/></g><g><linearGradient id="q" x1="935.5514" x2="935.5514" y1="185.528" y2="349.538" gradientTransform="matrix(1 0 0 -1 -789.412 383.4)" gradientUnits="userSpaceOnUse"><stop offset="0" stop-color="#00a3d9"/><stop offset=".043" stop-color="#1faede"/><stop offset=".145" stop-color="#62c6e8"/><stop offset=".243" stop-color="#9adbf0"/><stop offset=".332" stop-color="#c6eaf6"/><stop offset=".411" stop-color="#e5f6fb"/><stop offset=".478" stop-color="#f8fdfe"/><stop offset=".525" stop-color="#fff"/><stop offset=".587" stop-color="#fbfefe"/><stop offset=".647" stop-color="#f0f9fd"/><stop offset=".706" stop-color="#dcf2fa"/><stop offset=".765" stop-color="#c1e9f6"/><stop offset=".823" stop-color="#9edcf0"/><stop offset=".881" stop-color="#72ccea"/><stop offset=".939" stop-color="#3fbae2"/><stop offset=".995" stop-color="#06a5da"/><stop offset="1" stop-color="#00a3d9"/></linearGradient><path fill="url(#q)" stroke="#00133F" stroke-linejoin="round" stroke-width=".5" d="M148.6 46.3l6.6-3.2-9-9.2-9.1 17.9 6.6-3.2v136.7l-6.6 3.6 9.1 9 8.9-18.7-6.5 3.5z"/><text fill="#00133F" font-family="'ArialMT'" font-size="18" transform="translate(135.3944 22.911)">+Z</text><text fill="#00133F" font-family="'ArialMT'" font-size="18" transform="translate(137.4094 216.786)">-Z</text></g><g><linearGradient id="r" x1="884.0374" x2="884.0374" y1="-36.2689" y2="127.3866" gradientTransform="scale(1 -1) rotate(59.463 867.21507 -707.19474)" gradientUnits="userSpaceOnUse"><stop offset="0" stop-color="#00a3d9"/><stop offset=".044" stop-color="#26b1df"/><stop offset=".117" stop-color="#5ec5e7"/><stop offset=".191" stop-color="#90d7ee"/><stop offset=".263" stop-color="#b8e5f4"/><stop offset=".333" stop-color="#d7f1f9"/><stop offset=".401" stop-color="#edf9fc"/><stop offset=".466" stop-color="#fafdfe"/><stop offset=".525" stop-color="#fff"/><stop offset=".584" stop-color="#fbfefe"/><stop offset=".643" stop-color="#eff9fd"/><stop offset=".703" stop-color="#daf2fa"/><stop offset=".763" stop-color="#bee7f5"/><stop offset=".824" stop-color="#99daf0"/><stop offset=".885" stop-color="#6ccae9"/><stop offset=".945" stop-color="#37b7e1"/><stop offset="1" stop-color="#00a3d9"/></linearGradient><path fill="url(#r)" stroke="#00133F" stroke-linejoin="round" stroke-width=".5" d="M168.4 274.7l6.3-3.6-18.7-.8 1.7 10.6 6.1-3.5 122.3 69.1-6 3.8 18.5.4-1.7-11.2-6.2 4z"/><text fill="#00133F" font-family="'ArialMT'" font-size="18" transform="translate(298.2834 365.184)">+</text><text fill="#00133F" font-family="'ArialMT'" font-size="18" transform="translate(308.7954 365.184)">Y</text><text fill="#00133F" font-family="'ArialMT'" font-size="18" transform="translate(136.7104 268.571)">-</text><text fill="#00133F" font-family="'ArialMT'" font-size="18" transform="translate(142.7044 268.571)">Y</text></g><g><linearGradient id="s" x1="333.3654" x2="251.9664" y1="154.7575" y2="154.7575" gradientTransform="matrix(1 0 0 -1 0 482.35)" gradientUnits="userSpaceOnUse"><stop offset=".004" stop-color="#0f0f0f"/><stop offset="1" stop-color="#545454"/></linearGradient><path fill="url(#s)" stroke="#575757" stroke-linejoin="round" stroke-width=".5" d="M242.6 351.3v-26.4l59.4-21v9.8z"/><linearGradient id="t" x1="190.0354" x2="242.5784" y1="152.465" y2="152.465" gradientTransform="matrix(1 0 0 -1 0 482.35)" gradientUnits="userSpaceOnUse"><stop offset="0" stop-color="#707070"/><stop offset=".321" stop-color="#9d9d9d"/><stop offset=".511" stop-color="#b3b3b3"/><stop offset="1" stop-color="#757575"/></linearGradient><path fill="url(#t)" stroke="gray" stroke-linejoin="round" stroke-width=".5" d="M190 308.5V321l52.6 30.3v-26.4l-52.5-16.4"/></g><g><path fill="#F9F9F9" d="M310.9 282.1c-.5 19.7-30.4 35.6-66.9 35.5s-65.6-16.3-65.2-36 30.4-35.6 66.8-35.5 65.8 16.3 65.3 36z"/><path fill="#6D6D6D" d="M233.5 314.1v-2.5l13.9.4v.8l3.1 1.6v-2.5l11.4-1v.8l2.3 1.3v-2.5l9.6-2.1v.9l2 1.2v-2.6l8.2-2.8v.9l1.7 1v-2.6l7-3.5v.9l1.5.8v-2.7l6-4.1v1.3l.9.5v-2.7l4.7-4.7v1l.9.4V289l3-5.6v.9l.6.3v-2.8l.9-6.5-.1-1.8-3.5-8.3-1.7-1.8v-1.7l-36-19.2v2.6L248 240v2l-15.1-1.4v2.1l-12.4-.1v2.1l-10.6.8v2l-8.9 1.6v2.3l-7.7 2.1v2.2l-6.4 3v2.2l-4.9 4v2.5l-2.7 4.6v9.1l-.1 2.3.6.4z"/><linearGradient id="u" x1="178.9294" x2="311.2183" y1="181.874" y2="181.874" gradientTransform="matrix(1 0 0 -1 0 482.35)" gradientUnits="userSpaceOnUse"><stop offset="0" stop-color="#3d3d3d"/><stop offset=".09" stop-color="#505050"/><stop offset=".374" stop-color="#888"/><stop offset=".511" stop-color="#9e9e9e"/><stop offset="1" stop-color="#333"/></linearGradient><path fill="url(#u)" stroke="#6B6B6B" stroke-linejoin="round" stroke-width=".5" d="M179 278l.8 4.1.9 2.1 48.9 26.8v2.6l-1.4-.2v1.6s1.2.2 2.8.4 3.9.4 3.9.4v-1.6l-1.4-.1v-2.7l14 .6v2.7h-1.4v1.5s1 0 2.9-.1c2-.1 2.8-.1 2.8-.1v-1.6h-1.4v-2.5l11.4-1v2.5l-1.1.1v1.5l2.4-.4c1.3-.2 2-.4 2-.4v-1.5l-1.1.2v-2.5l9.6-2.2v2.6l-.8.2v1.6l2-.5 1.7-.5v-1.5l-.9.2v-2.5l8.2-2.9v2.6l-.7.4v1.5l1.9-.8 1.4-.6v-1.5l-.9.4v-2.6l7-3.5.1 2.6-.6.4v1.4l2.7-1.6v-1.5l-.7.3v-2.6l6-4.1v2.6l-.6.5v1.3l2.2-1.8v-1.4l-.7.5v-2.7l4.7-4.8v2.7l-.4.5v1.3l1.8-2.4v-1.1l-.5.6V289l3-5.6v3l-.3.8v1l1.3-3.8v-.7l-.4.9v-2.8l.9-5.6.1 15.1c-2.4 9.1-8.3 16.8-16.4 21.6-11.7 6.8-24.8 10.6-38.2 11.3-22.9 1.3-39.9.1-58.4-9.6-15.9-8.5-19.3-21.9-19.3-21.9l.2-14.7z"/><linearGradient id="v" x1="250.1181" x2="239.8416" y1="242.962" y2="169.8458" gradientTransform="matrix(1 0 0 -1 0 482.35)" gradientUnits="userSpaceOnUse"><stop offset="0" stop-color="#a8a8a8"/><stop offset=".11" stop-color="#c2c2c2"/><stop offset=".278" stop-color="#e3e3e3"/><stop offset=".418" stop-color="#f8f8f8"/><stop offset=".511" stop-color="#fff"/><stop offset=".605" stop-color="#fafafa"/><stop offset=".715" stop-color="#ececec"/><stop offset=".833" stop-color="#d4d4d4"/><stop offset=".956" stop-color="#b4b4b4"/><stop offset="1" stop-color="#a6a6a6"/></linearGradient><path fill="url(#v)" stroke="#999" stroke-linejoin="round" stroke-width=".5" d="M179.7 282.9l49.9 28.1s-18.7-2.2-31.9-9.6c-14.7-8.2-18-18.5-18-18.5zm53.8 28.6s4.4.4 7.5.5c3.2.1 6.4 0 6.4 0l-68.6-38.5c-.2 1.3-.2 2.6-.1 4 .1 1.2.2 2.4.5 3.6l54.3 30.4zm17 .4s3.2-.2 6.2-.5 5.2-.5 5.2-.5l-80.6-44.8c-.5.9-1 1.8-1.3 2.8-.3 1-.5 2-.7 3.1l71.2 39.9zm13.7-1.4s2.9-.5 5.5-1.1c1.4-.3 2.7-.7 4.1-1.1l-88-48.6c-1.4 1.6-2.6 3.2-3.7 5l82.1 45.8zm11.6-2.6s2.3-.6 4.4-1.4 3.8-1.4 3.8-1.4l-92.1-50.5-2.1 1.5c-1 .8-2.9 2.7-2.9 2.7l88.9 49.1zm9.9-3.5s2.3-1 4.1-1.9 2.9-1.6 2.9-1.6l-93.5-51s-.5.3-1.7.9c-1.3.7-4.3 2.7-4.3 2.7l92.5 50.9zm8.5-4.5s1.7-1 3.3-2.1 2.7-2 2.7-2l-92-49.8c-.9.3-1.8.6-2.6 1-1.5.7-4.6 2.1-4.6 2.1l93.2 50.8zm6.9-5s1.5-1.2 2.6-2.4l2.1-2.4-87.6-47.2s-1.3.3-3.5.9c-1.1.3-4.8 1.6-4.8 1.6l91.2 49.5zm5.6-6s.9-1.3 1.6-2.6c.5-1 1-1.9 1.4-3l-79.4-42.6c-1.2.1-2.5.3-3.7.5-1.8.3-6 1.2-6 1.2l86.1 46.5zm3.6-7.1c.4-1.1.6-2.2.8-3.3.1-1.1.2-2.2.1-3.3L244.7 240c-1.3-.1-2.5 0-3.8 0-2.9.1-7.9.6-7.9.6l77.3 41.2zm.9-8.3c-.2-1.6-.6-3.2-1.2-4.7-.5-1.5-1.3-2.9-2.2-4.2l-44.1-23.2c-1.8-.3-3.6-.6-5.5-.7-3.2-.4-10.2-.7-10.2-.7l63.2 33.5zm-41.3-31l36 19.2s-3.7-5.4-13.1-10.8c-9.4-5.4-22.9-8.4-22.9-8.4z"/></g><g><linearGradient id="w" x1="146.3324" x2="215.3844" y1="355.451" y2="355.451" gradientTransform="matrix(1 0 0 -1 0 482.35)" gradientUnits="userSpaceOnUse"><stop offset=".004" stop-color="#595959"/><stop offset=".481" stop-color="#c2c2c2"/><stop offset=".611" stop-color="#a4a4a4"/><stop offset=".784" stop-color="gray"/><stop offset=".878" stop-color="#737373"/></linearGradient><path fill="url(#w)" d="M155.5 113.8l50.1-25.5v49.8l-50.1 27.4z"/><linearGradient id="x" x1="104.7124" x2="189.8174" y1="377.229" y2="377.229" gradientTransform="matrix(1 0 0 -1 0 482.35)" gradientUnits="userSpaceOnUse"><stop offset=".004" stop-color="#595959"/><stop offset=".481" stop-color="#c2c2c2"/><stop offset=".611" stop-color="#a4a4a4"/><stop offset=".784" stop-color="gray"/><stop offset=".878" stop-color="#737373"/></linearGradient><path fill="url(#x)" d="M116.1 82.2l61.7-30V126l-61.6 32.1z"/><linearGradient id="y" x1="158.2133" x2="125.3253" y1="383.3621" y2="333.8171" gradientTransform="matrix(1 0 0 -1 0 482.35)" gradientUnits="userSpaceOnUse"><stop offset=".001" stop-color="#a3a3a3"/><stop offset=".645" stop-color="#e8e8e8"/><stop offset=".733" stop-color="#d4d4d4"/><stop offset=".907" stop-color="#b0b0b0"/><stop offset="1" stop-color="#a3a3a3"/></linearGradient><path fill="url(#y)" stroke="#B5B5B5" stroke-linejoin="round" stroke-width=".5" d="M119.1 146.9l36.4 18.6v-51.7L119 95.6z"/><linearGradient id="z" x1="185.9041" x2="148.6761" y1="425.9862" y2="369.9022" gradientTransform="matrix(1 0 0 -1 0 482.35)" gradientUnits="userSpaceOnUse"><stop offset=".004" stop-color="#ccc"/><stop offset=".645" stop-color="#fff"/><stop offset=".659" stop-color="#fdfdfd"/><stop offset=".881" stop-color="#d9d9d9"/><stop offset="1" stop-color="#ccc"/></linearGradient><path fill="url(#z)" stroke="#B3B3B3" stroke-linejoin="round" stroke-width=".5" d="M119 95.6l36.5 18.2 50.1-25.5-36.5-17.5z"/><linearGradient id="A" x1="261.8666" x2="207.9686" y1="437.1541" y2="355.9581" gradientTransform="scale(1 -1) rotate(-22.488 -1084.60537 243.30062)" gradientUnits="userSpaceOnUse"><stop offset=".004" stop-color="#ccc"/><stop offset=".645" stop-color="#fff"/><stop offset=".659" stop-color="#fdfdfd"/><stop offset=".881" stop-color="#d9d9d9"/><stop offset="1" stop-color="#ccc"/></linearGradient><path fill="url(#A)" stroke="#C7C7C7" stroke-width=".5" d="M205.5 136.5c-9.6 20.5-28 34.2-39.3 29.2-18.7-8.4-18-27.6-8-47.9 9.6-19.6 27.6-35.4 44.3-26.5 13.6 7 12.6 24.7 3 45.2z"/><linearGradient id="B" x1="154.3214" x2="213.8844" y1="352.3867" y2="354.8687" gradientTransform="matrix(1 0 0 -1 0 482.35)" gradientUnits="userSpaceOnUse"><stop offset=".004" stop-color="#595959"/><stop offset=".481" stop-color="#c2c2c2"/><stop offset=".611" stop-color="#a4a4a4"/><stop offset=".784" stop-color="gray"/><stop offset=".878" stop-color="#737373"/></linearGradient><path fill="url(#B)" stroke="#8A8A8A" stroke-width=".5" d="M200.3 146.7c-13.2 18.4-30.7 25.2-39.2 15.2s-4.7-32.9 8.5-51.3 30.7-25.2 39.2-15.2c8.4 10 4.6 33-8.5 51.3z"/><linearGradient id="C" x1="182.9064" x2="222.2304" y1="295.877" y2="376.505" gradientTransform="matrix(1 0 0 -1 0 482.35)" gradientUnits="userSpaceOnUse"><stop offset=".004" stop-color="#4a4a4a"/><stop offset=".299" stop-color="#a1a1a1"/><stop offset=".602" stop-color="#fff"/><stop offset=".728" stop-color="#c1c1c1"/><stop offset=".855" stop-color="#888"/><stop offset=".949" stop-color="#646464"/><stop offset="1" stop-color="#575757"/></linearGradient><path fill="url(#C)" stroke="#8A8A8A" stroke-linejoin="round" stroke-width=".5" d="M173.6 119.6c13.6-23.1 28.9-18.9 28.9-18.9l51.9 25.9s-19.2-7.9-33.6 19.2c-14.1 26.4.3 39 .3 39l-48.5-24.9c-.1 0-14.8-13.7 1-40.3z"/><path fill="#F6F6F6" d="M113.3 156.5l2.9 1.6V82.3l-2.9-1.5z"/><path fill="#E2E2E2" d="M177.8 52.2l-3-1.4-61.5 30 2.8 1.4z"/><linearGradient id="D" x1="224.8808" x2="284.8258" y1="294.1355" y2="296.6335" gradientTransform="matrix(.809 .006 -.006 -.808 31.6982 392.1243)" gradientUnits="userSpaceOnUse"><stop offset=".004" stop-color="#595959"/><stop offset=".481" stop-color="#c2c2c2"/><stop offset=".611" stop-color="#a4a4a4"/><stop offset=".784" stop-color="gray"/><stop offset=".878" stop-color="#737373"/></linearGradient><path fill="url(#D)" stroke="#8A8A8A" stroke-width=".5" d="M249.3 169.7c-10.6 14.9-24.9 20.3-31.9 12.1s-4-26.8 6.6-41.7 24.9-20.3 31.9-12.1 4.1 26.9-6.6 41.7z"/></g><g><linearGradient id="E" x1="225.3154" x2="244.5193" y1="305.2037" y2="348.3375" gradientTransform="matrix(1 0 0 -1 0 482.35)" gradientUnits="userSpaceOnUse"><stop offset="0" stop-color="#545454"/><stop offset=".058" stop-color="#585858"/><stop offset=".113" stop-color="#636363"/><stop offset=".167" stop-color="#767676"/><stop offset=".219" stop-color="#919191"/><stop offset=".271" stop-color="#b3b3b3"/><stop offset=".321" stop-color="#ddd"/><stop offset=".357" stop-color="#fff"/><stop offset=".37" stop-color="#fbfbfb"/><stop offset=".599" stop-color="#acacac"/><stop offset=".787" stop-color="#737373"/><stop offset=".926" stop-color="#4f4f4f"/><stop offset="1" stop-color="#424242"/></linearGradient><path fill="url(#E)" stroke="#878787" stroke-linejoin="round" stroke-width=".5" d="M251.7 137.7c.2 0 .4.1.5.1.2.1.4.1.6.2.2.1.3.1.5.2.3.1.5.2.8.3h0l-4.9-2.5c-.1-.1-.3-.1-.4-.2-.1-.1-.2-.1-.4-.1-.2-.1-.3-.1-.5-.2-.1 0-.1-.1-.2-.1s-.3-.1-.4-.1c-.2 0-.3-.1-.5-.1H246.2c-.2 0-.4-.1-.6-.1h-1.5-.1c-.5 0-.9.1-1.4.2H242.3c-.2 0-.4.1-.6.1-.1 0-.2.1-.3.1-.2.1-.4.1-.6.2-.1 0-.2 0-.2.1h-.1c-.2.1-.5.2-.7.3 0 0-.1 0-.1.1-.3.1-.6.3-.9.4-.1 0-.2.1-.3.1l-.6.3c-.1.1-.2.1-.3.2-.2.1-.4.2-.5.3l-.1.1s-.1.1-.2.1c-.2.1-.4.3-.6.4-.1.1-.2.1-.3.2-.2.2-.4.3-.6.5-.1 0-.1.1-.2.1h-.1c-.3.2-.6.5-.9.7-.1 0-.1.1-.2.1-.2.2-.5.4-.7.6l-.3.3c-.2.2-.4.4-.6.5l-.3.3c-.2.2-.4.4-.5.6l-.2.2-.1.1c-.6.6-1.1 1.3-1.7 2v.1l-.1.1c-.4.5-.8 1.1-1.2 1.6v.1l-.1.1c-.3.5-.7 1-1 1.6h0v0c-.3.5-.6 1-.8 1.5 0 .1-.1.1-.1.2 0 0 0 .1-.1.1-.2.5-.5.9-.7 1.4v.1c0 .1-.1.1-.1.2-.2.4-.4.8-.6 1.3 0 .1-.1.1-.1.2v.1l-.6 1.5v.1c0 .1 0 .1-.1.2-.2.5-.3 1-.5 1.5v.1h0l-.3 1.2c-.1.2-.1.5-.2.7 0 .1-.1.3-.1.4-.1.4-.2.9-.3 1.3 0 .1-.1.3-.1.4s0 .3-.1.4c0 .2-.1.3-.1.5-.1.4-.1.8-.1 1.2v.5c0 .5-.1.9-.1 1.4v2c0 .3 0 .6.1 1v.5c0 .3.1.6.1 1 0 .1 0 .3.1.4.1.4.2.9.3 1.3v.2c.1.4.2.7.3 1 0 .1.1.2.1.4.1.3.2.5.3.8.1.1.1.3.2.4.1.2.2.5.4.7.1.1.1.2.2.3l.6.9.1.1c.2.3.4.5.6.8l.2.2.5.5c.1.1.2.2.3.2.2.2.4.3.6.4.1.1.2.1.3.2.3.2.6.4.9.5l4.9 2.5c-.3-.2-.6-.3-.9-.5-.1-.1-.2-.1-.3-.2-.2-.1-.4-.3-.6-.4-.1-.1-.2-.2-.3-.2-.2-.2-.4-.3-.5-.5l-.2-.2c-.2-.2-.4-.5-.6-.8l-.1-.1-.6-.9c-.1-.1-.1-.2-.2-.3-.1-.2-.3-.5-.4-.7-.1-.1-.1-.2-.2-.4s-.2-.5-.3-.8c0-.1-.1-.2-.1-.4-.1-.3-.2-.7-.3-1v-.2c-.1-.4-.2-.8-.3-1.3 0-.1 0-.3-.1-.4-.1-.3-.1-.6-.1-1v-.5c0-.3-.1-.6-.1-1v-.5-1.2-.3c0-.5 0-1 .1-1.5v-.4c0-.4.1-.8.1-1.2 0-.2 0-.3.1-.5 0-.3.1-.6.1-.8.1-.4.2-.9.3-1.3l.3-1.2.3-1.2v-.1c.2-.5.3-1 .5-1.5 0-.1.1-.2.1-.3l.6-1.5c0-.1.1-.2.1-.3.2-.4.4-.8.6-1.3 0-.1.1-.2.1-.3.2-.5.5-.9.7-1.4.1-.1.1-.2.2-.3.3-.5.5-1 .8-1.5v0c.3-.5.6-1 1-1.6 0-.1.1-.1.1-.2.4-.6.8-1.1 1.2-1.6 0-.1.1-.1.1-.2.5-.7 1.1-1.4 1.7-2 .1-.1.2-.2.2-.3.2-.2.4-.4.5-.6l.3-.3c.2-.2.4-.4.6-.5l.3-.3c.2-.2.5-.4.7-.6l.1-.1c.3-.2.6-.5.9-.7.1-.1.2-.1.2-.2.2-.2.4-.3.6-.5.1-.1.2-.1.3-.2.2-.1.4-.3.6-.4.1-.1.2-.1.3-.2.2-.1.4-.2.5-.3.1-.1.2-.1.3-.2l.6-.3c.1 0 .2-.1.3-.1.3-.1.6-.3.9-.4 0 0 .1 0 .1-.1.3-.1.5-.2.8-.3.1 0 .2-.1.3-.1.2-.1.4-.1.6-.2.1 0 .2-.1.3-.1.2-.1.4-.1.6-.1.1 0 .2 0 .3-.1.5-.1.9-.2 1.4-.2h1.6c.2 0 .4 0 .6.1s.7.3.9.3z"/><ellipse cx="243.6" cy="159.6" fill="#717171" rx="23.5" ry="14.6" transform="rotate(-63.468 243.56368 159.5662)"/><linearGradient id="F" x1="249.6724" x2="244.0304" y1="274.625" y2="274.625" gradientTransform="matrix(1 0 0 -1 0 482.35)" gradientUnits="userSpaceOnUse"><stop offset="0" stop-color="#2b2b2b"/><stop offset=".042" stop-color="#3b3b3b"/><stop offset=".124" stop-color="#646464"/><stop offset=".238" stop-color="#a8a8a8"/><stop offset=".372" stop-color="#fff"/><stop offset=".408" stop-color="#d7d7d7"/><stop offset=".45" stop-color="#aeaeae"/><stop offset=".496" stop-color="#8a8a8a"/><stop offset=".546" stop-color="#6c6c6c"/><stop offset=".6" stop-color="#535353"/><stop offset=".661" stop-color="#404040"/><stop offset=".732" stop-color="#333"/><stop offset=".823" stop-color="#2b2b2b"/><stop offset="1" stop-color="#292929"/></linearGradient><path fill="url(#F)" stroke="#525252" stroke-width=".5" d="M245.6 199.7l4.1.1v15s0 .9-1.9.9-2.1-.8-2.1-.8l-.1-15.2z"/><linearGradient id="G" x1="250.9904" x2="241.5944" y1="285.2095" y2="285.2095" gradientTransform="matrix(1 0 0 -1 0 482.35)" gradientUnits="userSpaceOnUse"><stop offset="0" stop-color="#2b2b2b"/><stop offset=".042" stop-color="#3b3b3b"/><stop offset=".124" stop-color="#646464"/><stop offset=".238" stop-color="#a8a8a8"/><stop offset=".372" stop-color="#fff"/><stop offset=".408" stop-color="#d7d7d7"/><stop offset=".45" stop-color="#aeaeae"/><stop offset=".496" stop-color="#8a8a8a"/><stop offset=".546" stop-color="#6c6c6c"/><stop offset=".6" stop-color="#535353"/><stop offset=".661" stop-color="#404040"/><stop offset=".732" stop-color="#333"/><stop offset=".823" stop-color="#2b2b2b"/><stop offset="1" stop-color="#292929"/></linearGradient><path fill="url(#G)" stroke="#525252" stroke-width=".5" d="M244.2 193.8l6.9-.1-.1 5.3s-.4 1.4-3.3 1.6c-3 0-3.4-1.5-3.4-1.5l-.1-5.3z"/><linearGradient id="H" x1="252.9584" x2="238.2154" y1="290.916" y2="290.916" gradientTransform="matrix(1 0 0 -1 0 482.35)" gradientUnits="userSpaceOnUse"><stop offset="0" stop-color="#2b2b2b"/><stop offset=".042" stop-color="#3b3b3b"/><stop offset=".124" stop-color="#646464"/><stop offset=".238" stop-color="#a8a8a8"/><stop offset=".372" stop-color="#fff"/><stop offset=".408" stop-color="#d7d7d7"/><stop offset=".45" stop-color="#aeaeae"/><stop offset=".496" stop-color="#8a8a8a"/><stop offset=".546" stop-color="#6c6c6c"/><stop offset=".6" stop-color="#535353"/><stop offset=".661" stop-color="#404040"/><stop offset=".732" stop-color="#333"/><stop offset=".823" stop-color="#2b2b2b"/><stop offset="1" stop-color="#292929"/></linearGradient><path fill="url(#H)" stroke="#525252" stroke-width=".5" d="M242.2 188.7v4.2s1.4 1.3 5.4 1.3 5.3-1.3 5.3-1.3l.1-4.3-10.8.1z"/><linearGradient id="I" x1="262.8434" x2="217.5294" y1="316.723" y2="316.723" gradientTransform="matrix(1 0 0 -1 0 482.35)" gradientUnits="userSpaceOnUse"><stop offset="0" stop-color="#474747"/><stop offset=".143" stop-color="#989898"/><stop offset=".283" stop-color="#e2e2e2"/><stop offset=".347" stop-color="#fff"/><stop offset=".465" stop-color="#9c9c9c"/><stop offset=".481" stop-color="#8e8e8e"/><stop offset=".518" stop-color="#737373"/><stop offset=".561" stop-color="#5d5d5d"/><stop offset=".611" stop-color="#4c4c4c"/><stop offset=".673" stop-color="#414141"/><stop offset=".759" stop-color="#3a3a3a"/><stop offset="1" stop-color="#383838"/></linearGradient><path fill="url(#I)" stroke="#666" stroke-linejoin="round" stroke-width=".5" d="M229.9 144.1l3.7-2.1s3.8 6.6 15.2 6.7c11.3.1 14.3-5.6 14.3-5.6v38.1s-3 7.7-15.3 8.1c-11.2.4-14.2-7.1-14.2-7.1l-3.6 2.1v-40.2z"/><path fill="#EBEBEB" stroke="#757575" stroke-linejoin="round" stroke-width=".5" d="M229.9 184.3l-3.5-1.8v-40.1l3.5 1.7z"/><linearGradient id="J" x1="243.0947" x2="247.4048" y1="332.8877" y2="351.5564" gradientTransform="matrix(1 0 0 -1 0 482.35)" gradientUnits="userSpaceOnUse"><stop offset="0" stop-color="#bdbdbd"/><stop offset=".16" stop-color="#cdcdcd"/><stop offset=".472" stop-color="#f6f6f6"/><stop offset=".534" stop-color="#fff"/><stop offset="1" stop-color="#bdbdbd"/></linearGradient><path fill="url(#J)" stroke="#757575" stroke-linejoin="round" stroke-width=".5" d="M229.8 144l3.2-1.7s3.3 8 15.3 7.6c13.1-.4 14.6-6.8 14.6-6.8.4-2.2 0-4.4-1.3-6.3-4.5-6.2-15.8-5.1-15.8-5.1l-6.3 3.4-13.2 7.1 3.5 1.8z"/></g><g><path d="M201.6 437.4h3.6l-4-6.9-4 6.9h3.6v19.7h.8z"/><path d="M218 446.1l2 3 3.5-7.2-8 .6 2 2.9-16.4 11.1.5.6z"/><path d="M184.5 446l1.9-3-8-.3 3.7 7 1.9-3 16.8 10.4.4-.6z"/><text font-family="'ArialMT'" font-size="14" transform="translate(157.0564 435.53)">Y</text><text font-family="'ArialMT'" font-size="12" transform="translate(166.3944 438.718)">w</text><text font-family="'ArialMT'" font-size="14" transform="translate(190.8604 420.496)">Z</text><text font-family="'ArialMT'" font-size="12" transform="translate(199.4114 423.684)">w</text><text font-family="'ArialMT'" font-size="14" transform="translate(221.3734 435.531)">X</text><text font-family="'ArialMT'" font-size="12" transform="translate(230.7114 438.719)">w</text></g><g><text fill="#00133F" font-family="'ArialMT'" font-size="17.869" transform="translate(206.6784 283.727)">+C</text><linearGradient id="K" x1="216.2154" x2="275.2154" y1="244.942" y2="244.942" gradientTransform="matrix(1 0 0 -1 0 482.35)" gradientUnits="userSpaceOnUse"><stop offset="0" stop-color="#0e74b5"/><stop offset=".515" stop-color="#78cafe"/><stop offset=".998" stop-color="#0e74b5"/></linearGradient><path fill="url(#K)" stroke="#00133F" stroke-linejoin="round" stroke-width=".5" d="M245.7 227.9c-16.3 0-29.5 7-29.5 13.2v5.9c0-6.2 13.2-13.2 29.5-13.2s29.5 7 29.5 13.2v-6c0-6.1-13.2-13.1-29.5-13.1z"/><linearGradient id="L" x1="248.5254" x2="275.2154" y1="229.409" y2="229.409" gradientTransform="matrix(1 0 0 -1 0 482.35)" gradientUnits="userSpaceOnUse"><stop offset="0" stop-color="#fff"/><stop offset="1" stop-color="#00a3d9"/></linearGradient><path fill="url(#L)" stroke="#00133F" stroke-width=".5" d="M259.7 252.9v-6l-11.2 8.5 11.2 9.5v-6.1c9.2-1.9 15.5-7.6 15.5-11.8v-6c0 4.3-6.3 10-15.5 11.9z"/><linearGradient id="M" x1="216.2174" x2="242.8074" y1="229.409" y2="229.409" gradientTransform="matrix(1 0 0 -1 0 482.35)" gradientUnits="userSpaceOnUse"><stop offset="0" stop-color="#00a3d9"/><stop offset="1" stop-color="#fff"/></linearGradient><path fill="url(#M)" stroke="#00133F" stroke-width=".5" d="M242.8 255.3l-11.2-8.5v6c-9.2-1.9-15.4-7.6-15.4-11.8v5.9c0 4.2 6.2 9.9 15.4 11.8v6.1l11.2-9.5z"/><text fill="#00133F" font-family="'ArialMT'" font-size="18" transform="translate(260.0924 283.942)">-C</text><linearGradient id="N" x1="286.4546" x2="345.4547" y1="573.1837" y2="573.1837" gradientTransform="scale(-1 1) rotate(59.095 351.30285 -161.94446)" gradientUnits="userSpaceOnUse"><stop offset="0" stop-color="#0e74b5"/><stop offset=".515" stop-color="#78cafe"/><stop offset=".998" stop-color="#0e74b5"/></linearGradient><path fill="url(#N)" stroke="#00133F" stroke-linejoin="round" stroke-width=".5" d="M305.8 190.2c8.4-14 9.1-28.9 3.8-32.1l-5.1-3c5.3 3.2 4.5 18.1-3.8 32.1s-21.2 21.7-26.5 18.5l5.1 3c5.3 3.2 18.1-4.5 26.5-18.5z"/><linearGradient id="O" x1="318.7604" x2="345.4527" y1="557.6533" y2="557.6533" gradientTransform="scale(-1 1) rotate(59.095 351.30285 -161.94446)" gradientUnits="userSpaceOnUse"><stop offset="0" stop-color="#fff"/><stop offset="1" stop-color="#00a3d9"/></linearGradient><path fill="url(#O)" stroke="#00133F" stroke-width=".5" d="M277.2 189.4l5.2 3.1-1.5-14-13.9 4.7 5.2 3.1c-3.1 8.9-1.5 17.2 2.2 19.4l5.1 3c-3.8-2.1-5.5-10.4-2.3-19.3z"/><linearGradient id="P" x1="286.4546" x2="313.0435" y1="557.65" y2="557.65" gradientTransform="scale(-1 1) rotate(59.095 351.30285 -161.94446)" gradientUnits="userSpaceOnUse"><stop offset="0" stop-color="#00a3d9"/><stop offset="1" stop-color="#fff"/></linearGradient><path fill="url(#P)" stroke="#00133F" stroke-width=".5" d="M283.7 173.6l13-5.2-5.1-3.1c6.3-6.9 14.4-9.3 18-7.1l-5.1-3c-3.6-2.2-11.7.2-18 7.1l-5.2-3.1 2.4 14.4z"/><text fill="#00133F" font-family="'ArialMT'" font-size="18" transform="translate(294.4564 219.359)">-B</text><text fill="#00133F" font-family="'ArialMT'" font-size="18" transform="translate(317.8584 183.612)">+B</text><path fill="none" stroke="#00133F" stroke-dasharray="5.016 5.016" stroke-miterlimit="1" stroke-width=".75" d="M259.3 164.2l67.5 33.9M245.7 222v54.1"/></g><g><linearGradient id="Q" x1="62.7307" x2="136.7646" y1="-878.5597" y2="-878.5597" gradientTransform="scale(1 -1) rotate(-55.36 494.89372 -609.3142)" gradientUnits="userSpaceOnUse"><stop offset="0" stop-color="#0e74b5"/><stop offset=".515" stop-color="#78cafe"/><stop offset=".998" stop-color="#0e74b5"/></linearGradient><path fill="url(#Q)" stroke="#00133F" stroke-linejoin="round" stroke-width=".5" d="M73.5 465.2l6.1-4.3c-6.4 4.4-22.9-4.3-34.6-21.1s-13.8-35.4-7.4-39.9l-6.1 4.3c-6.4 4.4-4.1 23.1 7.4 39.9s28.2 25.4 34.6 21.1z"/><linearGradient id="R" x1="103.2335" x2="136.711" y1="-859.1447" y2="-859.1447" gradientTransform="scale(1 -1) rotate(-55.36 494.89372 -609.3142)" gradientUnits="userSpaceOnUse"><stop offset="0" stop-color="#fff"/><stop offset="1" stop-color="#00a3d9"/></linearGradient><path fill="url(#R)" stroke="#00133F" stroke-width=".5" d="M74.6 440.7c4.6 10.9 3.3 21.4-1.1 24.5l6.1-4.3c4.4-3 5.8-13.5 1.1-24.5l6.3-4.3-17.8-4.8-.7 17.7 6.1-4.3h0z"/><linearGradient id="S" x1="62.7246" x2="96.0649" y1="-859.2127" y2="-859.2127" gradientTransform="scale(1 -1) rotate(-55.36 494.89372 -609.3142)" gradientUnits="userSpaceOnUse"><stop offset="0" stop-color="#00a3d9"/><stop offset="1" stop-color="#fff"/></linearGradient><path fill="url(#S)" stroke="#00133F" stroke-width=".5" d="M67 403.2l-6.3 4.4c-8.5-8.2-18.8-10.5-23.2-7.5l-6.1 4.3c4.4-3 14.7-.6 23.2 7.5l-6.1 4.3 16.7 5.5 1.8-18.5z"/><text font-family="'ArialMT'" font-size="15.0475" transform="matrix(-.9979 .06517 .06517 .9979 15.8858 428.9966)">-A</text><text font-family="'ArialMT'" font-size="15.0475" transform="matrix(-.9979 .06517 .06517 .9979 56.3815 478.6152)">+A</text><path d="M13.2 455.7L95 407.8"/></g></svg>