<svg xmlns="http://www.w3.org/2000/svg" viewBox="0 0 123.31 121.45"><defs/><path d="M34.76 2.64c8.24.52 16.3 2.68 24.54 3.33 3.22 1.48 7.17-.34 10.02 1.91-3.96-.22-8.5-.97-11.61 2.12-7.63-1.14-15.65 1.09-23.05-1.27 4.25-.26 8.77.8 12.8-.99 4.26-.06 8.54.25 12.79-.19-8.43-1.9-17.09-2.75-25.64-3.92l-.08 3.11c4.3.23 8.85-.77 12.93 1-4.26.28-8.77-.79-12.8.99-3.28.07-6.56-.14-9.83.15-2.17 1.58-.98 4.59-1.32 6.86 5.75.61 11.29-1.44 17.02-1.02 8.3-.07 16.62.23 24.91-.12 6.17-1.46 12.54-.69 18.81-.86.98 2.41 1.53 5.16 3.61 6.92 1.11.34 1.86-.06 2.23-1.19 1.06-2.49 1.49-5.17 2.3-7.74-3.18-.02-6.39.23-9.55-.25-8.26-1.93-16.9.48-25.13-1.48 3.76-1.34 7.82-.96 11.61-2.12 2.11-.28 4.24-.13 6.37-.14l-1.43 2.07c5.26-2.88 10.91.72 16.35.89 5.02-.25 9.59 2.48 14.64 2.17 2.27 1.43.99 4.44 1.31 6.65 2.1.94 4.35 1.38 6.66 1.32.79.77 1.59 1.53 2.4 2.3-1.01 3.26-1.82 6.59-2.96 9.81-.57 1.41.32 2.65.94 3.83 2.2-1.19 4.43-2.32 6.71-3.34.22 1.73.54 3.44.77 5.17-1.11 2.65-3.17 4.74-4.59 7.21-.18 1.7.71 3.2 1.25 4.74 2.07.09 4.04.69 5.95 1.43.04 2.57-.72 5.38-2.93 6.92-1.85 1.2-3.03 3.07-4.41 4.74 1.34 3.05 3.93 5.18 6.15 7.57.43 1.56-.71 2.92-1.15 4.34-2.39.87-5.07 1.35-6.71 3.49-.81 4.14 3.39 7.41 2.88 11.57-.43 1.14-.87 2.26-1.34 3.39-1.77-.34-3.41-1.1-4.98-1.95l-2.23.76c-.9 4.16.18 8.19 1.52 12.13-.48 1.26-1.65 2.45-2.93 2.87-2.36-.17-4.57-1.15-6.93-1.25.14 3.39-.2 6.74-1.26 9.96-2.97 2.03-6.41 1-9.54.01-.6 1.75-1.18 3.51-1.61 5.31-3.14.08-6.09-1.01-9.1-1.73-7.2-1.16-14.39-2.35-21.59-3.34-2.44 0-4.89-.07-7.22-.85-3.32-.22-6.65-.18-9.86-1.12-4.24.23-8.34-.63-12.49-1.29-.23-.45-.67-1.34-.89-1.78-3.55-.04-7.27.5-10.54-1.24.03-2.68-.24-5.47.89-7.99-3.2.86-7.62 2.77-9.67-1.04-.84-3.9 3.63-7.34 2.73-11.41-1.79-2.77-5.18-.48-7.64-.12-.27-1.29-.55-2.57-.9-3.84 1.69-2.63 2.84-5.57 4.65-8.16-.56-1.35-.99-2.76-1.32-4.18-1.93-.21-4.46.68-5.63-1.37-.14-1.43-.1-2.88-.11-4.31 1.83-1.81 3.85-3.4 6.1-4.65-.81-1.78-1.33-3.71-.4-5.57-2.26-2.19-5.45-4.18-4.79-7.81 1.87-1.96 4.44-2.69 6.94-3.5.14-1.98.66-3.9 1.3-5.78-1.75-1.98-2.33-4.63-3.95-6.69.67-1.09 1.32-2.19 2-3.28 2.93.32 5.67-.58 8.03-2.31-.59-3.44-1.58-6.83-1.21-10.36.81-.79 1.6-1.58 2.4-2.38 2.19-.01 4.37-.01 6.57-.01-.46-3.72.41-7.44 3.3-10h7.29a65.93 65.93 0 011.65-3.1zm-8.61 4.39c1.38 1.44 5.2.74 7.3.4-1.43-1.5-5.17-.61-7.3-.4zm65.56 11c-.41 2.39-2.78 3.62-4.32 5.24-.85-2.52-2.59-4.66-3.08-7.3-1.5-.62-2.98-1.45-4.66-1.25-4.72.09-9.54-.45-14.12.96-7.65.17-15.31 0-22.96.06-3.73.09-7.58-.45-11.18.8-5.17.64-10.44-.24-15.61.41-.36.44-1.1 1.32-1.47 1.77 3.84-.04 7.8.47 11.51-.8 7.92-.85 16.07.9 23.85-1.12 6.56-.32 13.16.29 19.7-.26 4.31-1.42 8.9-.61 13.34-.8-1.59 3.34-1.11 7.06-1.18 10.63a89.632 89.632 0 00-3.52 3.51c-1.64-1.9-2.9-4.2-5.29-5.26-2.53 3.31.85 7.36 1.07 11.03-1.37 1.51-2.4 3.22-2.62 5.28-2.2-.6-4.39-1.26-6.68-1.33.19 3.88 1.13 7.81 3.13 11.18-.85 1.53-1.64 3.1-2.35 4.7-2.08.33-3.93 1.32-5.71 2.37v3.52c1.59 1.43 3.1 3.02 5.08 3.94-.39 2.41-.82 4.81-1.2 7.23-1.68 1.06-3.31 2.18-4.86 3.42l-.03 4.75c1.91.02 3.82.03 5.74.03.37 1.72.91 3.39 1.46 5.06-1.97 3.09-4.09 6.12-5.38 9.57.53.38 1.58 1.14 2.11 1.52 1.43-.8 2.86-1.59 4.28-2.41.97 1.29 3.45 2.23 2.68 4.19-1.23 3.5-2.27 7.07-2.99 10.71.45.37 1.36 1.1 1.81 1.47 1.73-2.24 3.15-4.73 5.3-6.63 1.04 1.59 2.13 3.14 3.26 4.67-.89 2.74-1.51 5.55-1.29 8.45l1.56 1.56c1.42-3.13 3.19-6.07 4.68-9.16 2.15-.61 2.72 1.99 3.55 3.4.46 2.06.19 4.21.27 6.32.44.38 1.32 1.13 1.76 1.51 1.34-4.13 1.88-8.58 4.3-12.29.86.47 1.73.92 2.6 1.36.68 2.47 2.23 4.57 2.97 7.02 3.52-4.04 2.07-9.48 2.36-14.34 1.19.01 2.38.02 3.58.04 1.39 1.47 2.83 2.9 4.3 4.29.54-.4 1.62-1.21 2.15-1.61-1.46-4.3-2.49-8.77-2.05-13.34 1.03-.46 2.05-.95 3.06-1.45 1.37.79 2.77 1.54 4.16 2.33.93-.87 2.2-1.7 1.81-3.18-.58-3.85-2.72-7.21-4.28-10.72 2.81-2.37 6.72-3 9.19-5.73.81-2.2-1.51-3.44-2.72-4.84-1.76-1.47-2.71-3.56-3.59-5.62 2.69-3.29 7.56-5.16 7.61-10.03-1.51-.88-3.24-1.06-4.91-1.4-1.61-.99-2.35-2.77-3.26-4.32 1.85-2.85 3.8-5.64 5.62-8.51-.21-.97-.64-2.91-.86-3.88-1.78.98-3.61 1.87-5.42 2.78-.58-.27-1.74-.81-2.31-1.08-.11-.99-.99-2.04-.4-3 1.62-3.35 2.33-7.02 3.38-10.57-.55-.31-1.63-.93-2.17-1.23-2.37 1.04-2.53 5.49-5.67 5.13-2.89-.13-2.43-3.75-2.08-5.77.86-2.4.95-4.94.82-7.46-3.41.78-5.15 5-5.2 8.27-1.65-.16-3.7.37-4.67-1.38-.61-2.91.95-6.52-1.4-8.83-2.25 1.36-1.62 4.32-2.56 6.42zm4.89-5.51c.27 3.03-1.43 7.45 2.48 8.59.38-2.75 2.16-4.89 3.55-7.19-2.04-.37-4.02-.97-6.03-1.4zm-46.92 5.29c-7.78 2.02-15.93.27-23.85 1.12-3.66 1.27-7.58.72-11.37.84-.11 3.42 1.29 6.62 1.26 10.04 2.1-.04 4.26.02 6.28-.67 2.67-.76 5.52-.02 8.19-.79 3.17-1.11 6.64-.08 9.81-1.22 3-.84 6.19.08 9.19-.78 2.9-1.05 6.06-.18 9-1 3.5-1.24 7.34.06 10.83-1.24 3.18-1.29 7.1.47 8.14 3.76 1.13-.48 2.25-.98 3.4-1.43.16-3.23-.59-6.66.87-9.69-2.92.02-5.84-.11-8.76.06-7.5 1.93-15.34.44-22.99 1zm55.88 2.71c-.26 2.34-.21 4.94 2.59 5.5.83-1.31 1.63-2.64 2.48-3.95-1.64-.68-3.31-1.3-5.07-1.55zm-39.99 5.21c-4.99-.32-9.74 1.37-14.74 1.2-4.02 1.51-8.42.13-12.45 1.61-5.25 0-10.29 1.41-15.54 1.39-3.76 1.45-7.86.24-11.66 1.39-1.86.76-5.36-.47-4.81 2.66 2.38-.45 4.71-1.41 7.18-1.22 4.39.33 8.53-1.47 12.94-1.09 4.01-1.34 8.32-.41 12.33-1.74 3.04-.47 6.21.26 9.18-.79 2.67-.76 5.52-.01 8.19-.8 3.5-1.2 7.3 0 10.82-1.15 1.91-.34 3.95-.59 4.86-2.59-2.14.18-4.14 1.14-6.3 1.13zm-3 3.01c-4.37-.34-8.5 1.46-12.88 1.09-4.63 1.45-9.56.38-14.19 1.84-4.69-.29-9.13 1.43-13.82 1.16-4.92 1.5-10.17.31-15.06 2.07.78 2.15 1.65 4.25 3.17 6-.6 2.31-1.31 4.6-1.37 7.01 17.53-3.17 35.19-5.61 52.76-8.6 2.97-.93 6.23-.85 9.04.55.31-1.51.6-3.08 2.2-3.72.39-2.91-1.01-5.87-1.96-8.59-2.66.2-5.19 1.35-7.89 1.19zm-7.39 12.59c-17.88 2.82-35.77 5.6-53.62 8.62 0 .74.01 2.24.02 2.99C20.26 49.42 39 46.17 57.72 42.87c2.26-.24 6.02-.18 6.12-3.22-2.81.95-5.78 1.06-8.66 1.68zM15.35 51.51c-4.37.91-9.02.78-13.11 2.69 1.37 1.13 2.75 2.27 4.34 3.08-.42 2.08-.32 4.19-.01 6.27C4.79 65 2.7 66.07 1.2 67.83c14.1-2.99 28.34-5.29 42.49-8.02 6.87-1.6 14.36-1.51 20.51-5.42.74-1.29 1.38-2.63 2.1-3.94-1.32-2.46-1.78-5.22-2.71-7.82-15.98 3.36-32.23 5.59-48.24 8.88zM.55 68.97c.01.74.03 2.21.05 2.95l2.17-.32c14.6-3.26 29.42-5.58 44.08-8.63 3.9-.72 8.09-.77 11.68-2.63l.12-2.36C39.33 61.85 19.84 64.93.55 68.97zm47.17-5.12c-13.43 2.6-26.88 5.12-40.31 7.71-1.54.27-3.09.29-4.64.05 1.36.87 3.1 1.1 4.32 2.2.18 1.32.36 2.64.45 3.97-.9 2.43-3.13 4.23-3.23 6.96 4 .4 7.82-.88 11.69-1.6 13.11-2.04 26.13-4.69 39.23-6.76 2.95-.37 4.75-2.84 7.26-4.12.04-2.16.03-4.35.75-6.41a181 181 0 01-4.47-4.29c-3.59 1.15-7.32 1.79-11.05 2.29zM20.33 83.5c-5.23.5-10.24 2.33-15.52 2.4-.84.8-1.36 1.78-1.57 2.93 3.15-1.19 6.54-.9 9.77-1.68 11.73-1.93 23.44-3.9 35.16-5.84 3.11-.84 6.47-.22 9.4-1.81 0-.71-.01-2.14-.01-2.85-12.3 2.73-24.84 4.46-37.23 6.85zm34.9-2.18C41.08 83.1 27.1 86.3 12.93 87.9c-.29.28-.89.85-1.18 1.14.14 3.9-1.99 7.23-3.14 10.84 17.17-2.36 34.39-4.04 51.58-6.25 1.13-2.83 2.97-5.26 4.54-7.85-.84-1.25-1.27-2.88-2.54-3.78-2.32-.32-4.64-1.62-6.96-.68zm-2.68 14.39c-4.31-.21-8.4 1.3-12.7 1.23-3.44 1.28-7.18.31-10.65 1.39-7.02 1.14-14.19 1.02-21.09 2.91 1.48 1.26 3.29 2.06 5.23 1.33 3.1-1.27 6.52-.43 9.66-1.45 2.94-.77 6.09.05 9-.99 9.59-1.31 19.25-1.79 28.78-3.69-1.88-3.37-5.45-.56-8.23-.73zm9.85 1.93c-4.25 0-8.3 1.32-12.55 1.3-3.72 1.33-7.77.27-11.49 1.58-2.67.33-5.41.12-7.99 1.01-4.33.25-8.86.2-12.81 2.28v5.91c3.4-.03 6.82.2 10.21-.08a8 8 0 013.83-.9c6.63-.09 13.27.13 19.91-.06 4.54-1.4 9.31-.91 14-.89 1.33-3.12 1.8-6.52 3.1-9.65-.58-.56-1.74-1.69-2.32-2.26-1.29.62-2.5 1.43-3.89 1.76zm39.57 6.36c-1.83.48-.83 2.5.75 1.73 2.04-.04.65-2.59-.75-1.73zm-29.07 1.62a30.032 30.032 0 01-4.55 6.09c-13.44.15-26.9-.13-40.33.14 5.71 2.69 12.18 1.82 18.3 2.1 5.7 1.24 11.51 1.82 17.24 2.76 3.71-.31 7.26.61 10.88 1.21-.06-2.8.34-5.55 1.12-8.23.49-1.91-1.66-2.83-2.66-4.07zm-21.37 4.06c-7.91.09-15.85.16-23.76-.04.48.27 1.43.81 1.9 1.08 12.37.05 24.75.02 37.12.01-.36-.46-1.08-1.36-1.44-1.81-4.6-.36-9.34-.53-13.82.76zm38.16 5.93c2.03.4 4.02.98 6.07 1.33.06-2.71-1.88-4.62-3.22-6.75-1.68 1.38-2.21 3.45-2.85 5.42zm-11.48 2.95c2.24 1.12 4.74 1.48 7.09 2.32-.92-2.52-.76-5.2-.76-7.83-.53-.43-1.58-1.29-2.1-1.72-1.51 2.35-3.17 4.61-4.23 7.23z" class="st0"/><path d="M86.26 48.44c1.58-1.86 4.12-2.05 6.25-2.92 4.28 2.04 7.79 5.83 8.9 10.49.03 3.78 2.14 7.49.56 11.22-.83 8.52-5.02 18.92-14.38 20.75-5.01-2.38-9.1-7.34-9.14-13.06-.13-1.74-.95-3.35-.93-5.11.92-7.66 2.6-16.05 8.74-21.37zm.54.57c-4.83 4.38-7.04 11.01-7.68 17.35-1.48 3.44.4 6.87.5 10.35.62 4.52 3.86 8.39 7.99 10.23 1.53-.52 3.08-1 4.61-1.55 5.27-4.09 8.02-10.87 8.57-17.37.58-2.22 1.22-4.57.42-6.82-.91-2.68-.27-5.72-1.94-8.14-1.21-3.05-3.92-5.08-6.75-6.52-1.91.83-4.23.9-5.72 2.47z" class="st0"/></svg>