<svg xmlns="http://www.w3.org/2000/svg" id="Layer_1" x="0" y="0" version="1.1" viewBox="0 0 123.31 121.45" xml:space="preserve"><defs/><path d="M31.4.11c3.27-.02 6.4.94 9.51 1.83.73-.65 1.46-1.3 2.21-1.94C57.43 3.47 72.2 4.79 86.76 6.62c5.34 1.69 11.28-.79 16.42 1.81v4.58c2.78.31 5.47 1.16 8.27 1.42-2.19 2.29-4.63 4.41-6.2 7.21-1.09-.6-3.29-.91-3.05-2.56-.5-3.71 1.14-7.96-1.33-11.14-1.72 2.91-2.86 6.1-3.96 9.28H93.4c-.5-3.21-.95-6.55-2.53-9.44-3.01 3.62-.83 11.05-6.05 12.3.13-1.23.86-2 2.19-2.29.36-2.9 1.13-5.74 2.01-8.52C75.53 6.44 61.79 4.66 48.2 2.23c-2.12.15-4.44-1.8-6.34-.4 3.33 1.27 6.81 2.3 10.39 2.45-.54.55-1.61 1.66-2.14 2.21-6.05-1.59-12.14-3.1-18.03-5.22-.82 2.24-1.27 4.6-2.03 6.87 8.82 3.67 17.74 7.04 26.65 10.47 6.27 2.82 13.25 4.44 18.66 8.88 1.34-1.38 3.68-2.69 2.69-4.97-.94-2.41-1.29-5.06-.01-7.42-5.92-2.14-12.06-3.66-18.18-5.14.95-.44 2.83-1.31 3.77-1.75-2.3-.21-4.41.98-6.68 1.17 1.1-1.45 3.14-2.66 5.01-2.03 6.25 1.8 12.7 2.94 18.87 5.01.56 2.52 3.3 4.26 3.23 6.81-1.94-2-3.16-4.73-5.35-6.58-3.91-.75-7.72-2.49-11.73-2.39 3.45 2.43 8.44 2.3 12.33 4.28-1.89 3.09-.86 6.53.1 9.72-1.48 1.27-1.86 4.32-4.18 4.09-1.66-1.02-3.24-2.18-4.92-3.17-2.35 2.53.19 5.72.55 8.56 1.21 2.81-.5 5.42-1.91 7.76-1.54-.35-3.06-.81-4.58-1.23-.76 1.26-2.64 2.26-2.21 3.98.99 2.33 2.32 4.5 3.78 6.57.43 1.58-.28 3.21-.32 4.81-2.13.73-3.99 2.65-6.33 2.49 1.21-1.7 3.7-2 5.46-3.03.04-1.29.26-2.56.48-3.83-1.97-2.18-2.65-5.28-4.84-7.25-9.1-5.24-19.04-8.79-28.28-13.78-6.88-3.12-14.13-5.87-20.34-10.16 4.98 1.37 9.29 4.5 14.06 6.48 5.92 2.09 11.28 5.43 16.99 8 6.18 2.24 11.84 5.62 17.75 8.45 1.16-.13 1.96-1.18 1.61-2.34-8.98-2.92-16.8-8.6-25.68-11.82-8.16-3.58-15.76-8.43-24.17-11.44-2.19 4.3 1.13 8.38.89 12.75-.63 1.9-1.84 3.53-3.23 4.95-2.18-.32-4.65-1.77-6.03.9 10.49 6.02 21.82 10.27 32.5 15.92 7.46 2.9 14.48 6.81 21.65 10.36.07-.74.2-2.22.27-2.97 1.77.22.45 2.65.85 3.79 1.58 1.25 3.25 2.38 4.96 3.44 1.12 4.74-2.17 8.37-5.11 11.61.03.77.09 2.32.13 3.09 2.28.36 5.36-.92 6.88 1.36.2 1.86.18 3.75.06 5.61-1.8 2.74-3.27 5.85-3.03 9.22 2.62.1 4.96-1.31 6.17-3.62 2.12 1.72 2.98 4.81 1.76 7.31-1.31 3-.83 6.32-.83 9.49 2.38-1.97 3.96-4.67 5.44-7.33.56-.01 1.69-.02 2.26-.03 2.17 4.15.94 8.91 1.28 13.38 3.44-2.03 3.3-6.23 5.05-9.39 1.26.02 2.54.03 3.81.04.02 3.29.52 6.83 2.73 9.41 1.62-4.01 2.09-8.36 3.59-12.41.65-.01 1.94-.01 2.59-.02 1.5 2.39 3.2 4.68 3.9 7.46.98-2.46 3.06-5.09 1.71-7.79-1.17-2.76.05-6.44 2.58-7.87 1.77 1.09 3.06 2.78 4.49 4.26.84-.82 1.69-1.64 2.55-2.43-1.46-4.29-2.46-8.74-2.02-13.3.98-.4 1.95-.82 2.92-1.26 1.48.71 3.09.99 4.72 1.1.36-1.46.78-2.9 1.38-4.27-1.52-3.61-4.95-6.54-4.11-10.79 2.39-1.03 4.89-1.84 7.1-3.24-.01-1.56-.01-3.12-.01-4.67-2.51-1.45-6.14-2.54-6.06-6.05 1.39-4.46 7.12-6.78 6.16-12.1-2-.02-4.01-.03-6.01-.03-4.59-5.32 3.03-10.5 1.94-16.25-1.91.65-3.43 2.01-5.21 2.89-1.43-.01-2.68-1.06-3.77-1.91-.34-1.86.89-3.55 1.33-5.3 1.06-2.44.44-5.17.69-7.74 2.23 2.73.45 6.87-.28 10.02 2.19.97 4.53 1.34 6.9 1.48 2.85 1.84.61 5.69-.51 8.01-1.95 2.15-.98 5.17-1.17 7.79 2.34.01 4.69.01 7.04.03.34 3.04-.39 6.2-2.8 8.26-1.75 1.37-2.45 3.4-3.08 5.45 1.09 2.66 3.8 3.77 5.86 5.53-.02 1.51-.03 3.03-.04 4.55-1.93 1.86-4.34 3.18-7.03 3.51-1.06 4.23 3.06 6.87 3.8 10.68a46.13 46.13 0 00-1 5.11c-2.65.62-5.47-2.14-7.64-.01-.7 4.16.5 8.28 1.91 12.16-1.07 1.34-2.04 2.75-2.98 4.18-1.77-1.61-3.46-3.31-5.25-4.9-1.11 1.92-2.52 3.98-1.62 6.28 1.58 3.24-.15 6.83-2.4 9.27-2.57.1-5.03-.59-7.47-1.28-.48 2.08-1.11 4.13-1.57 6.22-2.7.05-5.44.08-8.01-.89-1.82-.57-3.53 1.35-5.36.5-9.3-1.95-18.71-3.67-28.21-3.63l-.09-1.01h3.96l-.07-1.2c-3.6.42-7.14 1.91-10.8 1.01-4.16-1.52-8.63-.36-12.92-1-3.35-1.17-7.06-.33-10.26-2.05.01-1.39.02-2.79.02-4.18l2.72-1.92c5.93 1.41 11.87 2.78 17.86 3.9-1.39.71-2.76 1.86-4.44 1.42-5.02-1.1-9.99-2.49-15.1-3.19-.01.75-.04 2.24-.06 2.99 4.99 1.04 10.08 1.41 15.12 2.12 4.57-.01 8.99 1.75 13.58.97-3.57-1.21-7.34-1.67-11.04-2.26 1.22-.88 2.44-2.21 4.08-1.44 11.78 2.55 23.62 4.87 35.28 7.94-.17-3.87.74-8.01-1.17-11.59-2.14 2.38-3.7 5.24-6.05 7.45-19.02-5.36-37.79-11.6-56.8-16.96-2.7.35-1.79 3.97-2.13 5.91 1.8.71 3.65 1.28 5.45 1.98l-2.39.92c-1.95.96-3.42-.69-4.67-1.92.78-2.5.85-5.17 1.85-7.62-2.8-.57-5.5-1.54-8.17-2.56-.15-3 .57-6.05 2.29-8.53 1.24-1.44.68-3.42.85-5.14-2.43-.99-4.94-1.84-7.2-3.2-.38-3.91 2.26-6.98 5.11-9.26.02-1.69.03-3.39.03-5.08-1.97-.85-3.45-2.43-5-3.85 0-1.47-.01-2.93-.02-4.39 2.03-1.94 4.6-3.07 7.02-4.41.92-4.19-2.07-7.33-4.06-10.63.6-1.42 1.05-2.9 1.42-4.4 2.15.2 4.22.83 6.32 1.32.39-1.73 1.05-3.4 1.33-5.16-.55-2.67-1.32-5.3-2.18-7.89.76-1.34 1.49-2.7 2.25-4.05 2.34.9 4.73 1.73 6.92 2.98 1.76-3.57 1.2-7.96.37-11.74 1.25-.7 2.4-1.56 3.55-2.41 1.85 1.07 3.76 2.07 5.89 2.4C30.2 5.18 30.5 2.54 31.4.11zM20.86 7.75c15.81 6.38 31.65 12.73 47.31 19.45.27-.51.8-1.52 1.07-2.02-.27-1.4-2.26-1.22-3.27-1.88-14.31-5.76-28.84-10.98-43-17.11-.53.39-1.58 1.17-2.11 1.56zm71.44.47c.92 2.73 1.51 5.55 2.24 8.33 3.45-1.13 3.13-5.64 4.92-8.29-2.38-.05-4.77-.05-7.16-.04zm-71.09.76c-.19 3.62.61 7.47-1.12 10.83 5.59 2.42 10.86 5.53 16.44 7.98 9.18 3.31 17.23 9.33 26.58 12.14 1.93-.66 3.85.02 5.75.43.39-1.73 1.06-3.39 1.33-5.15-.81-2.89-.68-6.83-4.06-8.04-7.67-2.87-15.09-6.35-22.74-9.28-7.49-2.75-14.61-6.38-22.18-8.91zm42.33.41c-.47 1.94 4.15.93 1.95-.37-.49.09-1.46.27-1.95.37zm39.61 4.72c-.05 2.2-.18 4.5 1.19 6.38 1.69-1.64 3.34-3.31 5.03-4.94-1.97-.86-4.03-1.52-6.22-1.44zm7.38 12.27c-.02 2.08 2.88 3.13 4.34 1.52-.66-1.16-2.94-1.95-4.34-1.52zM4.99 37.88c2.63 3.09 4.59 7.34 1.99 11.1-1.57.36-3.09.88-4.61 1.41-.56 1.49-1.1 2.99-1.45 4.55 3.14 1.81 6.36 3.49 9.8 4.66 15.68 7.53 31.89 13.92 47.46 21.69 0-.74 0-2.22-.01-2.96-3.1-1.75-6.28-3.4-9.66-4.55-10.89-5.29-22.11-9.85-33.08-14.93-4.39-2.61-9.76-3.42-13.65-6.83 7.11 2.31 13.65 6.2 20.65 8.88C34.3 66.47 46.45 71.43 58.2 77.25c3.28-2.08 5.7-6.21 5.1-10.28-1.61-.99-3.05-2.21-4.55-3.36-10.93-6.09-22.58-10.63-33.66-16.41-6.99-2.46-13.22-6.61-20.1-9.32zm1.25 21.11c-.08 1.97.1 3.97-.27 5.92-1.33 1.52-2.82 2.9-4.2 4.4 1.03 1.13 2.25 2.04 3.73 2.5 14.39 5.52 28.75 11.15 43.03 16.97 4.6 1.65 9.26 3.19 13.61 5.45.83-2.15 1.84-4.21 3.01-6.19-.05-1.94.78-4.53-1.29-5.71-1.86-.18-3.73-.05-5.59-.18-12.13-5.66-24.4-10.99-36.58-16.55-5.31-1.84-9.99-5.13-15.45-6.61zM1.23 70.94c-.02.75-.06 2.26-.07 3.02 6.5 2 12.63 4.98 19.09 7.13 12.56 4.86 25.31 9.23 37.86 14.12 1.4.75 2.92 1.17 4.53 1.06-1.07-1.25-2.35-2.25-3.94-2.71-8.93-3.3-17.78-6.79-26.6-10.37-10.22-4.26-20.72-7.79-30.87-12.25zm7.22 7.05c.15 3.47-2.27 6.08-3.28 9.23 21.22 6.92 42.74 13.09 64.01 19.92-.76-3.91 2.51-7.4.87-11.21-2.43.78-4.77 3.17-7.46 2.01-11.64-4.55-23.4-8.76-35.12-13.11-6.38-2.17-12.5-5.11-19.02-6.84zM4.79 88.36c.49 1.52 1.44 2.96 3.18 3.03 15.49 4.26 30.75 9.27 46.15 13.81 5.2 1.29 10.15 3.63 15.52 4.13-.95-1.03-1.88-2.21-3.39-2.32-20.58-5.89-40.9-12.68-61.46-18.65zm89.39 18.18c0 1.14-.01 2.29-.02 3.43 1.69.65 3.39 1.27 5.21 1.42.09-2.63-1.8-4.48-3.07-6.57l-2.12 1.72zm-9.75 1.69c-.46 2.35-1.23 4.63-2.1 6.87 2.24.45 4.44 1.12 6.74 1.25-.98-2.64-1.94-5.32-2.12-8.15-.63 0-1.89.02-2.52.03z" class="st0"/><path d="M50.11 6.49c1.47-.28 3.91-2.4 4.99-.79-1.15.99-4.04 2.57-4.99.79zM56.73 6.42c3.78-.98.17 2.5-1.68 1.87-1.99-.46 1.09-1.67 1.68-1.87zM11.2 35.38c7.53 3.18 14.52 7.69 22.22 10.52 8.27 3.82 16.17 8.44 24.6 11.91l-.01.4c-2.45.33-4.45-1.46-6.58-2.35-7.44-3.58-14.61-7.74-22.33-10.69-5.12-2.5-10.18-5.13-15.32-7.62-.9-.63-2.58-.78-2.58-2.17zM90.63 42.49c3.27-1.21 7.03.76 8.63 3.72 7 10.27 4.15 24.53-3.3 33.78-2.75 1.97-6.65 4.77-9.91 2.21-3.14-2.19-6.24-5.05-6.68-9.07-3.04-8.82-.15-18.43 4.52-26.1 1.62-2.3 4.28-3.4 6.74-4.54zm.8.74c-2.94 1.17-6.37 2.46-7.62 5.66-2.34 4.15-3.76 8.74-4.59 13.41-.62 5 .73 9.88 2.28 14.58 1.86 2.23 3.97 4.45 6.8 5.39 2.45.28 4.48-1.43 6.58-2.4 7.67-9.06 10.32-23.48 3.34-33.66-1.28-2.37-4.22-3.41-6.79-2.98zM17.48 102.12c1.83.09 3.67.17 5.42.76-2.3.39-6.6 3.03-7.81.16l.86.28c.38-.3 1.15-.9 1.53-1.2z" class="st0"/></svg>