<svg xmlns="http://www.w3.org/2000/svg" viewBox="0 0 333.7 379.3"><defs/><g fill="none" stroke="#000" stroke-linecap="round" stroke-linejoin="round" stroke-miterlimit="10"><path stroke-width="1.44" d="M233.84 367.57h27.3m-152.2 11h115.7m-147.4-8.2h115.7m-149.2-29.6h115.7m-140.2-47.7h115.7m-2.5-143.7H16.64m-.4 88h115.7m2-143.9H18.14m137.4-49.5H39.74m148.5-32.3H72.44M224.74.77h-115.8m147.6 8.2h-28m61.4 29.6h-26.3m50.8 47.7h-27.8m30.8 55.6h-11.2m1.9 88.1h8.8m-27.1 55.9h25.6m-48 49.5h26.4m-270.3-138.9l-.1-6.7m6.6 56.9l-1.4-6.2m-1.3-95l1.3-6.4m277.7 94.8l-1.3 6.3m5-57.3l.1 6.7m-6.5-56.9l1.4 6.2m-17.5-49.5l2.6 5m-26.1-36.2l3.4 3.2m-31.8-18.6l3.8 1m-33.5 1.4l3.8-1.4m-31.2 21.2l3.3-3.5m-25.1 38.3l2.4-5.3m-16 51l1.2-6.4m-5.1 57.4l-.1-6.7m6.6 56.9l-1.4-6.2m17.5 49.5l-2.6-5m26.2 36.3l-3.4-3.3m31.7 18.6l-3.9-1m33.6-1.4l-3.8 1.3m31.2-21.1l-3.4 3.5m-36-14.8c-22-.2-38.6-18.5-48.1-36.5-12.8-23.9-17.9-53.9-17.3-80.8.5-26.7 6.6-55.5 20.5-78.5 10-16.4 25.9-31.7 46.4-30.9 20.6.8 36.3 17.7 45.6 34.6 13.1 23.7 18.6 53.2 18.4 80-.1 26.7-5.9 56.1-19.4 79.4-9.7 16.6-25.6 32.6-46.1 32.7m-6.7 31.1c-27.8-.2-48.4-22.8-60.8-45.5-16.4-30.7-23-67.4-22.6-102 .4-34 7.7-70.7 25-100.3 12.4-21 32.4-41.2 58.4-41.3 27.6.1 48.6 22.9 60.8 45.5 16.4 30.5 23.1 67.6 22.6 102-.3 33.8-7.8 71-25 100.3-12.4 21.1-32.5 41.2-58.4 41.3m67.9-54.6l-2.5 5.2m-58.7-147.4c9.9-.1 17.5 8.1 21.9 16.3 6.3 11.2 8.7 25.9 8.3 38.7.1 17.5-9.1 50-31.2 49.7-21.7-2.2-29.9-35.3-29.2-53.2-.3-17.7 8.3-50.8 30.2-51.5m-4.6 94.8c-8.1.1-14.5-7-18-13.6-4.6-8.9-6.5-19-6.5-28.9-.4-14.5 6.4-41.7 24.5-42.5 18.1.8 25 28 24.5 42.5.6 14.4-6.5 41.9-24.5 42.5"/><path stroke-width=".72" d="M239.64 338.67h5.6"/><path stroke-width="1.44" d="M267.74 362.57l-.2.7-.3.4m-1.5-37c2.8 11.7 3.4 24 2 35.9m-19.6-23.9c-.4-2.1-2.1-5.4-4.7-4.4m17.3 33.1c-6.6-8.3-10.4-18.4-12.6-28.7m13.3 28.8l-.4.1-.4-.2m6.6-3.8l-2.9 2-2.9 1.9m6-49.6c-2 2.1-2.4 6.1-1.7 8.8"/><path stroke-width=".72" d="M238.44 367.37h17.7"/><path stroke-width="1.44" d="M217.24 343.57c.1-2.2-1-6.5-3.5-7m9.7 41.4c-4.2-10.8-6.2-22.9-6.2-34.4m6.9 35l-.4-.1-.3-.5m6.8.3l-3.1.2h-3.1m6.9-.8l-.3.5-.4.2m6-35.6c.3 11.4-1.3 24.1-5.3 34.9m8.6-42.2c-2.5.8-3.6 5-3.4 7.3m-128.4 35.2l-1.4-3.7-1.2-3.9m3.3 8.2l-.4-.1-.3-.5m1.3.6l-.6-.1"/><path stroke-width=".72" d="M208.64 336.57h3.3M207.74 343.57h6.3"/><path stroke-width="1.44" d="M187.34 329.87c.6-2.6.2-6.9-2-8.7m-114.7 44.7c-1.3-8.5-1.4-16.6-.7-25.1m1.2 26.1l-.4-.4-.2-.6m6.4 4.4l-2.9-1.6-2.9-1.8m6.1 3.5l-.3-.1"/><path stroke-width=".72" d="M208.84 335.57h.6"/><path stroke-width="1.44" d="M186.34 365.87c-1.8-11.8-1.5-24.3 1-36m-.5 37l-.3-.4-.2-.6m6.4 4.4l-2.9-1.6-2.9-1.8m6.5 3.2l-.4.3-.4-.1m12.6-29.9c-1.7 10.1-5.7 21.4-11.8 29.6m16.4-34.4c-2.7-.8-4.2 2.8-4.6 4.9"/><path stroke-width=".72" d="M175.14 329.87h8m-108 36h106.7m-3.5-44.7h4.6m-107.3 45.7h106.6m-100.8 3.4h106.7"/><path stroke-width="1.44" d="M161.84 299.27c1.3-2.9 1.3-6.5-.1-9.4m-7.9 42.7c.7-11.4 3.1-22.9 8-33.2m-7.7 34.4l-.2-.6-.1-.7m-115.4 1.3l-.2-.6-.1-.7m5.1 8l-2.5-3.3-2.4-3.4m5.4 7l-.2-.1-.2-.2m-5.2-7.9c.6-11.4 3.1-22.8 8-33.2m0-.1c1-1.9 1.1-4.1.8-6.2"/><path stroke-width=".72" d="M47.74 340.47h106.6m24.6-22.5h2"/><path stroke-width="1.44" d="M158.94 340.47l-2.4-3.3-2.4-3.4m5.6 6.9l-.4.1-.4-.2m17.8-20.8c-3.6 8-9.1 16.5-17 20.8m22.2-22.6c-2-2-4.5-.4-5.3 1.9"/><path stroke-width=".72" d="M50.64 299.27h106.7m-114.7 33.3h106.6m-106.3 1.2h106.7m.4-43.8h7.7"/><path stroke-width="1.44" d="M144.04 255.47c2.1-2.2 2.4-6 1.7-8.9m-15.8 35.4c2.6-9.6 7.1-19.4 14.1-26.5m-14.1 27.8l-.1-.6.1-.7m3.2 10.4l-1.6-4.5-1.6-4.6m3.9 9.8l-.4-.2-.3-.5m-115 .7l-.4-.2-.2-.5m1.8.7l-1.2-.1m-3.9-11c2.7-9.7 7-19.3 14.1-26.5m-10.9 36.9l-1.7-4.5-1.6-4.6m.1 0l-.1-.6.1-.7m14.1-26.5c2-2.2 2.4-6.1 1.7-8.9"/><path stroke-width=".72" d="M18.74 281.97h106.6m-103.4 10.4h106.6m-109.8-9.1h106.7m-102.8 9.8h106.6m25-8.1h3.3"/><path stroke-width="1.44" d="M153.94 283.47c-5.2 5.8-12.1 10-20.1 9.5m25.4-8c-1.1-2.3-3.4-3.6-5.3-1.4"/><path stroke-width=".72" d="M34.54 246.57h106.6"/><path stroke-width="1.44" d="M20.14 203.67c2.6-.8 3.5-4.9 3.4-7.3"/><path stroke-width=".72" d="M32.84 255.47h106.6"/><path stroke-width="1.44" d="M135.94 203.67c2.4-.6 3.6-5.2 3.4-7.3m-21.9 23.9c4.2-7.2 10.3-14 18.5-16.6m-18.8 17.9v-.7l.2-.6m1 11.7l-.7-5.2-.5-5.2m1.7 11.4l-.3-.4-.2-.6m21.3 4c-7.3 2.7-14.4 1.5-20.8-2.9m25.5 7.4c-.4-2.1-2.1-5.5-4.7-4.5m-111 4.5l-.3-1.1-.4-1-.5-.9m-24.8-5.5l-1.2-10.4m0 0l.1-.7.2-.6m-.1 0c4.3-7.2 10.3-13.9 18.5-16.6m-17 29.3l-.4-.4-.2-.6m13.7 5.4c-4.9 0-9-1.6-13.1-4.4"/><path stroke-width=".72" d="M7.14 231.97h106.7m-107.9-10.4h106.7m-106.5-1.3h106.7m-88.2-16.6h106.7m-123.7 29.3h106.7m-86.3-36.5h106.7m-101.6 44h106.7"/><path stroke-width="1.44" d="M138.44 150.27c2.8.5 4.2-2.7 4.6-4.9M.74 166.47l.4-5.3.5-5.3m-.7 11.8l-.2-.5-.1-.7m19.3 16.2c-8.1-1.7-14.6-8.3-19-15m.7-11.8l.2-.6.3-.4m0 0c4.3-3.3 9.1-5.5 14.6-5.5m6.7 40.4c.1-2.3-1-6.3-3.5-7.1m5.6-33.3l.6-.7.5-1 .4-1.1.3-1.1"/><path stroke-width=".72" d="M24.44 182.67h106.6m-103.1 7.1h106.7"/><path stroke-width="1.44" d="M117.84 154.87c5.6-4.7 13.5-6.9 20.6-4.6m-21.1 5.6l.2-.6.3-.4m-1.4 11.6l.4-5.3.5-5.3m-.6 11.8l-.2-.5v-.7m19.1 16.2c-8.1-1.7-14.6-8.3-18.9-15m22.5 22.1c-.1-2.6-.8-6.2-3.6-7.1"/><path stroke-width=".72" d="M31.84 145.47h106.7"/><path stroke-width="1.44" d="M15.44 93.67l2.7-.2"/><path stroke-width=".72" d="M5.24 166.47h106.7m-105.8-10.6h106.7m-107.4 11.8h106.7m-105.5-12.8h106.7"/><path stroke-width="1.44" d="M151.44 101.57c2 2.1 4.4.4 5.3-1.9m-25.6-6c7.8-1 14.8 2.5 20.3 7.9m-20.9-7.2l.2-.5.4-.2m-119.3 10.1l1.4-4.7 1.5-4.6m11.9 35.9c-7.3-6.5-11.9-16.1-14.8-25.3m0 0l-.1-.7.1-.7m2.9-9.3l.3-.5.4-.2m13.2 45.4c.6-2.6.1-6.8-2-8.7"/><path stroke-width=".72" d="M16.34 103.77h106.7m-106.7 1.3h106.7m-91.9 25.3h106.6m-104.6 8.7h106.6"/><path stroke-width="1.44" d="M39.34 44.37l.2-.2.2-.1m87.8 59.7l1.4-4.7 1.5-4.6m-2.9 10.6l-.1-.7.1-.7m14.8 26.7c-7.3-6.8-11.8-15.9-14.8-25.3m16.8 34c.6-2.6.2-6.9-2-8.7"/><path stroke-width=".72" d="M151.24 99.77h3.6"/><path stroke-width="1.44" d="M34.64 51.37l2.3-3.6 2.4-3.4"/><path stroke-width=".72" d="M19.24 94.37h106.7m-106-.7h106.7"/><path stroke-width="1.44" d="M173.24 63.47c.9 2.3 3.5 3.6 5.3 1.4m-22.8-20.8c8.2 4 13.5 11.5 17.5 19.4m-18.3-19.1l.4-.3h.4m-5.4 7.3l2.3-3.6 2.3-3.4m-4.8 8.3v-.7l.2-.6m-107 33.8c-5.2-9.7-8.1-21.7-8.9-32.6m-.1.1l.1-.7.2-.6m9.2 42.1c.8-2.6.7-5.8-.5-8.3"/><path stroke-width=".72" d="M38.84 52.67h106.7m-97.7 32.5h106.6m-115.3-33.8h106.7m-102-7h106.6m-5.5 50.1h9.6"/><path stroke-width="1.44" d="M65.94 16.67l.2-.6.3-.4m0 0l2.9-2 2.9-1.9m-.1.1l.3-.2m86.6 73.5c-5.3-10.1-7.9-21.3-8.9-32.6m9 41.9c1.3-2.6 1.3-6.7-.1-9.3"/><path stroke-width=".72" d="M175.24 64.97h2.2"/><path stroke-width="1.44" d="M201.24 40.67c.4 2 2.1 5.5 4.7 4.5m-17.3-33.2c6.6 8.2 10.4 18.4 12.6 28.6m-13.3-28.7l.4-.1.4.3m-6.6 3.6l2.8-2 2.9-1.9m-6.2 4.9l.2-.6.3-.4m1.5 36.9c-2.7-11.7-3.4-24-1.9-35.9m.1 44.8c2.2-2.2 2.4-6 1.7-8.9m-117.3-8.6c-1.3-9.1-1.4-18.1-.3-27.3"/><path stroke-width=".72" d="M70.44 16.67h106.7m-6.5 35.9h8.6m-4.6 8.9h4.8m-108.5-45.8h106.7m-101-3.8h106.7m21.3 33.3h.8"/><path stroke-width="1.44" d="M232.04 35.77c0 2.4.9 6.3 3.6 7m-135.9-31.1l.8-3.4 1-3.4 1.1-3.3m.1.1l.2-.5.4-.2m0 0l5.6-.2"/><path stroke-width=".72" d="M203.54 36.57h6.4m-5.5 7.2h3.5"/><path stroke-width="1.44" d="M225.94 1.37c4.3 10.9 6.2 22.7 6.2 34.4m-6.9-35l.4.2.3.4m-6.9-.4l3.1-.2 3.1-.1m-6.8 1l.3-.4.4-.2m-6 35.5c-.2-12.2 1.3-23.4 5.3-34.9m-8.7 42.1c2.6-.8 3.5-4.9 3.4-7.3M262.04 49.47c-.6 2.8-.2 6.6 2 8.7m-1-44.7c1.7 12.2 1.5 24-1 36m.5-37l.3.4.2.6"/><path stroke-width=".72" d="M235.44 38.97h5.7m-8.1-29.7h18.3"/><path stroke-width="1.44" d="M287.44 80.07c-1.3 2.7-1.2 6.6.1 9.3m8-42.6c-.6 11.3-3.1 23.1-8 33.3m7.7-34.5l.2.5.1.7m-5.1-7.9l2.5 3.2 2.3 3.4m-5.6-6.8l.4-.1.4.3m-33.8-29.8l2.9 1.6 2.9 1.7m-6.5-3.1l.4-.3.4.1m-12.7 29.9c2-10.5 5.5-20.9 11.8-29.6m-16.4 34.4c2.8.6 4.2-2.6 4.6-4.9"/><path stroke-width=".72" d="M267.34 59.57h3.5m-2.7-20.9h17"/><path stroke-width="1.44" d="M305.34 123.87c-2.1 2-2.3 6.1-1.7 8.8m15.8-35.3c-2.6 9.5-7.1 19.4-14.1 26.5m14.1-27.9l.1.7-.1.7m-3.2-10.5l1.7 4.6 1.6 4.6m-4-9.8l.4.2.3.4m-20.7 8.9c5.2-5.8 12-9.9 20-9.5m-25.4 8.1c1.1 2.4 3.3 3.6 5.3 1.4m-22.7-36.2c3.5-8 9.2-16.5 17-20.9m-22.4 22.7c2.4 2 4.2.6 5.3-1.8"/><path stroke-width=".72" d="M292.24 95.77h2.1"/><path stroke-width="1.44" d="M313.54 175.57c-2.8 1.1-3.4 4.7-3.4 7.3"/><path stroke-width=".72" d="M308.44 143.37h.8"/><path stroke-width="1.44" d="M332.94 212.87l-.4 5.3-.5 5.3m.6-11.8l.2.5.1.7m-19.2-16.3c8.1 1.8 14.7 8.3 18.9 15.1m-22.4-22.1c-.1 2.2 1 6.5 3.5 7m-2.8 32.5c-2.6-.8-4.4 2.8-4.6 4.9m25.2-9.5c-6.1 4.6-13.1 6.9-20.6 4.6m21-5.7l-.1.7-.3.4m.4-65.4c-4.2 7-10.4 14-18.5 16.5m18.8-17.8l-.1.7-.2.6m-1-11.8l.7 5.2.6 5.3m-1.8-11.4l.3.4.2.6m-21.2-4c7-2.9 14.7-1.4 20.8 2.9m-25.5-7.4c.4 2.1 2 5.4 4.7 4.5"/><path stroke-width=".72" d="M309.84 229.07h.7"/><path stroke-width="1.44" d="M307.04 248.97c7.2 6.5 12 16.2 14.8 25.3m-16.8-34.1c-.6 3-.2 6.5 2 8.8m14.8 26.6l-1.4 4.7-1.6 4.7m3-10.7l.1.7-.1.7m-23.9 2.1c-2.2-2.1-4.3-.5-5.3 1.8m25.6 6.1c-7.9 1.1-14.8-2.5-20.3-7.9m20.9 7.2l-.2.5-.4.2"/><path stroke-width=".72" d="M294.84 277.77h2"/><path stroke-width="1.44" d="M276.14 315.77c-1.1-2.3-3.4-3.6-5.3-1.4m22.8 20.9c-7.6-3.6-14.1-12-17.5-19.5m18.2 19.2l-.4.3h-.4m5.4-7.3l-2.3 3.5-2.3 3.5m4.9-8.3l-.1.7-.2.6m-8.6-33.8c5.3 9.9 7.9 21.5 8.9 32.6m-9-42c-1.3 2.9-1.3 6.5.1 9.4"/><path stroke-width=".72" d="M271.14 315.77h3.2m-2.4 19.5h17.2"/></g></svg>