<svg xmlns="http://www.w3.org/2000/svg" width="61.609" height="61.609"><path fill="#231F20" d="M61.61 30.806c0-1.435-.1-2.842-.288-4.221l-5.292-1.77a25.784 25.784 0 00-3.15-7.614l2.486-4.99a31.008 31.008 0 00-5.968-5.967l-4.99 2.488a25.762 25.762 0 00-7.614-3.152L35.027.29A31.16 31.16 0 0030.806 0c-1.435 0-2.84.102-4.221.29l-1.77 5.29a25.822 25.822 0 00-7.617 3.152l-4.986-2.488a30.98 30.98 0 00-5.968 5.968L8.729 17.2a25.853 25.853 0 00-3.152 7.615L.29 26.585A30.574 30.574 0 000 30.805c0 1.434.099 2.84.29 4.22l5.287 1.77a25.885 25.885 0 003.152 7.617l-2.485 4.986a30.962 30.962 0 005.968 5.97l4.986-2.488a25.689 25.689 0 007.618 3.152l1.766 5.289c1.384.189 2.789.289 4.222.289 1.432 0 2.839-.1 4.22-.29l1.77-5.288a25.735 25.735 0 007.615-3.152l4.986 2.488a30.922 30.922 0 005.97-5.97l-2.487-4.986a25.71 25.71 0 003.152-7.616l5.289-1.771c.19-1.38.29-2.786.29-4.22zm-9.753 0c0 11.628-9.425 21.054-21.053 21.054S9.75 42.434 9.75 30.806 19.176 9.75 30.804 9.75s21.053 9.428 21.053 21.056z"/></svg>